<svg width="683" height="321" viewBox="0 0 683 321" fill="none" xmlns="http://www.w3.org/2000/svg">
<g clipPath="url(#clip0_1618_34028)">
<path d="M396.575 181.236H395.027V196.933H405.203V195.451H396.575V181.236Z" fill="#D7DCDA"/>
<path d="M427.572 182.675H433.113V196.933H434.662V182.675H440.203V181.26H427.572V182.675Z" fill="#D7DCDA"/>
<path d="M471.471 180.993C466.004 180.993 463.557 185.047 463.557 189.061C463.557 192.979 466.033 197.193 471.471 197.193C476.877 197.193 479.364 193.001 479.385 189.108C479.421 188.015 479.24 186.927 478.853 185.905C478.466 184.884 477.88 183.949 477.129 183.155C476.379 182.434 475.492 181.871 474.52 181.499C473.548 181.128 472.511 180.956 471.471 180.993ZM477.88 189.083C477.88 192.285 475.874 195.733 471.471 195.733C467.114 195.733 465.104 192.288 465.087 189.081C465.052 188.185 465.196 187.29 465.509 186.45C465.822 185.609 466.298 184.839 466.911 184.183C467.516 183.604 468.232 183.153 469.016 182.856C469.799 182.558 470.634 182.422 471.471 182.454C475.899 182.454 477.88 185.784 477.88 189.083Z" fill="#D7DCDA"/>
<path d="M517.98 181.236L512.272 190.021L506.503 181.236H504.82V196.933H506.369V183.736L512 192.29H512.592L518.18 183.74V196.933H519.706V181.236H517.98Z" fill="#D7DCDA"/>
<path d="M383.228 181.235H376.32V182.695H383.228C383.719 182.68 384.209 182.768 384.665 182.952C385.121 183.137 385.534 183.414 385.877 183.767C386.22 184.12 386.486 184.54 386.658 185.001C386.83 185.462 386.904 185.953 386.876 186.445C386.891 187.388 386.568 188.305 385.964 189.029C385.622 189.412 385.199 189.716 384.726 189.917C384.253 190.118 383.741 190.213 383.228 190.193H377.869V190.183H376.32V196.932H377.869V191.632H383.228C383.954 191.659 384.677 191.527 385.348 191.245C386.018 190.964 386.619 190.54 387.109 190.004C387.961 189.011 388.42 187.742 388.402 186.435C388.434 185.745 388.323 185.057 388.074 184.413C387.826 183.769 387.446 183.184 386.96 182.695C386.473 182.206 385.89 181.824 385.247 181.572C384.605 181.321 383.917 181.206 383.228 181.235Z" fill="#D7DCDA"/>
<path d="M423.717 196.933H425.388L418.347 181.236H416.818L410.491 195.341L409.776 196.933H411.447H422.791L422.061 195.341H412.149L413.748 191.706H413.734L417.572 183.01L423.717 196.933Z" fill="#D7DCDA"/>
<path d="M446.451 181.236V182.785H448H457.131V181.236H446.451Z" fill="#D7DCDA"/>
<path d="M448 188.496H446.451V196.954H448V190.011H456.825V188.53H448V188.496Z" fill="#D7DCDA"/>
<path d="M493.624 191.052C494.904 191.031 496.129 190.529 497.056 189.646C497.494 189.187 497.836 188.645 498.062 188.052C498.288 187.459 498.394 186.827 498.373 186.193C498.382 185.517 498.252 184.846 497.989 184.223C497.727 183.6 497.338 183.038 496.848 182.572C496.358 182.107 495.777 181.748 495.141 181.518C494.505 181.288 493.829 181.192 493.154 181.236H486.227V182.696H493.154C493.632 182.678 494.108 182.756 494.555 182.926C495.002 183.097 495.409 183.356 495.753 183.687C496.391 184.355 496.737 185.248 496.716 186.17C496.693 188.411 495.383 189.646 493.022 189.646H486.227V196.932H487.771V191.129H491.691L496.937 196.873L496.992 196.932H499.043L493.624 191.052Z" fill="#D7DCDA"/>
<path d="M185.593 124.547C187.91 124.529 190.207 124.97 192.352 125.845C194.498 126.721 196.448 128.013 198.091 129.647L198.59 130.146L201.957 127.236L201.378 126.658C199.307 124.585 196.846 122.943 194.137 121.827C191.427 120.711 188.523 120.144 185.593 120.157C179.065 120.157 173.5 122.295 169.498 126.339C167.439 128.497 165.831 131.044 164.768 133.83C163.705 136.617 163.208 139.588 163.306 142.569C163.365 153.481 170.278 164.492 185.593 164.492C188.523 164.507 191.426 163.94 194.136 162.825C196.846 161.709 199.307 160.068 201.378 157.995L201.931 157.442L198.677 154.368L198.157 154.882C194.791 158.153 190.284 159.984 185.591 159.987C172.721 159.987 168.033 150.534 167.933 142.444C167.845 140.046 168.232 137.654 169.074 135.407C169.915 133.159 171.193 131.101 172.835 129.351C175.958 126.206 180.369 124.547 185.593 124.547Z" fill="#D7DCDA"/>
<path d="M225.633 120.637H220.884V164.014H249.192V159.444H225.633V120.637Z" fill="#D7DCDA"/>
<path d="M272.389 120.637H267.699V164.014H272.389V120.637Z" fill="#D7DCDA"/>
<path d="M404.643 120.637H399.953V164.014H404.643V120.637Z" fill="#D7DCDA"/>
<path d="M455.799 153.88L428.757 120.637H426.26V164.014H431.009V130.824L457.884 163.735L458.113 164.014H460.488V120.637H455.799V153.88Z" fill="#D7DCDA"/>
<path d="M499.802 140.608V144.938H514.395V155.564C511.077 158.45 506.818 160.023 502.42 159.986C490.181 159.986 484.702 151.148 484.702 142.384C484.628 139.99 485.029 137.604 485.885 135.366C486.74 133.127 488.031 131.081 489.683 129.346C491.372 127.724 493.37 126.459 495.558 125.625C497.746 124.791 500.08 124.406 502.42 124.492C507.227 124.494 511.85 126.341 515.336 129.651L515.899 130.204L518.777 127.049L518.257 126.536C514.044 122.361 508.348 120.024 502.416 120.038C495.858 120.038 490.247 122.193 486.189 126.27C482.156 130.324 480.039 135.916 480.069 142.444C480.069 153.449 486.978 164.551 502.416 164.551C505.468 164.558 508.49 163.943 511.296 162.743C514.103 161.543 516.635 159.784 518.739 157.572L518.962 157.349V140.608H499.802Z" fill="#D7DCDA"/>
<path d="M366.038 120.637H346.919V125.146H366.038C372.694 125.146 375.726 130.315 375.726 135.12C375.769 137.63 374.907 140.073 373.299 142.001C372.391 143.019 371.27 143.824 370.014 144.359C368.759 144.893 367.401 145.144 366.038 145.093H346.919V164.014H351.673V149.544H366.042C368.062 149.616 370.074 149.248 371.938 148.465C373.802 147.682 375.473 146.502 376.835 145.008C379.205 142.252 380.485 138.724 380.435 135.09C380.431 128.129 375.926 120.637 366.038 120.637Z" fill="#D7DCDA"/>
<path d="M313.085 120.637H293.968V125.146H313.085C319.743 125.146 322.774 130.315 322.774 135.12C322.816 137.631 321.952 140.074 320.342 142.001C319.434 143.019 318.312 143.825 317.057 144.359C315.802 144.894 314.444 145.144 313.08 145.093H293.968V164.014H298.718V149.544H313.085C315.106 149.616 317.118 149.248 318.982 148.465C320.847 147.682 322.518 146.502 323.88 145.008C326.249 142.251 327.529 138.724 327.479 135.09C327.479 128.129 322.975 120.637 313.085 120.637Z" fill="#D7DCDA"/>
<path d="M363.996 188.072H359.727V190.099H363.996V188.072Z" fill="#D7DCDA"/>
<path d="M355.456 188.072H351.186V190.099H355.456V188.072Z" fill="#D7DCDA"/>
<path d="M346.916 188.072H342.646V190.099H346.916V188.072Z" fill="#D7DCDA"/>
<path d="M338.376 188.072H334.106V190.099H338.376V188.072Z" fill="#D7DCDA"/>
<path d="M329.838 188.072H325.567V190.099H329.838V188.072Z" fill="#D7DCDA"/>
<path d="M321.296 188.072H317.026V190.099H321.296V188.072Z" fill="#D7DCDA"/>
<path d="M312.756 188.072H308.486V190.099H312.756V188.072Z" fill="#D7DCDA"/>
<path d="M304.216 188.072H299.946V190.099H304.216V188.072Z" fill="#D7DCDA"/>
<path d="M295.676 188.072H291.406V190.099H295.676V188.072Z" fill="#D7DCDA"/>
<path d="M287.137 188.072H282.867V190.099H287.137V188.072Z" fill="#D7DCDA"/>
<path d="M278.596 188.072H274.326V190.099H278.596V188.072Z" fill="#D7DCDA"/>
<path d="M270.056 188.072H265.786V190.099H270.056V188.072Z" fill="#D7DCDA"/>
<path d="M261.516 188.072H257.245V190.099H261.516V188.072Z" fill="#D7DCDA"/>
<path d="M252.976 188.072H248.707V190.099H252.976V188.072Z" fill="#D7DCDA"/>
<path d="M244.435 188.072H240.166V190.099H244.435V188.072Z" fill="#D7DCDA"/>
<path d="M235.894 188.072H231.625V190.099H235.894V188.072Z" fill="#D7DCDA"/>
<path d="M227.355 188.072H223.086V190.099H227.355V188.072Z" fill="#D7DCDA"/>
<path d="M218.815 188.072H214.546V190.099H218.815V188.072Z" fill="#D7DCDA"/>
<path d="M210.276 188.072H206.007V190.099H210.276V188.072Z" fill="#D7DCDA"/>
<path d="M201.735 188.072H197.466V190.099H201.735V188.072Z" fill="#D7DCDA"/>
<path d="M193.196 188.072H188.926V190.099H193.196V188.072Z" fill="#D7DCDA"/>
<path d="M193.035 181.962L175.898 185.706C175.78 185.722 175.67 185.774 175.583 185.856C175.497 185.938 175.439 186.046 175.417 186.163C175.286 186.81 174.998 187.415 174.58 187.925C174.155 188.408 173.635 188.799 173.054 189.074C172.472 189.349 171.841 189.502 171.198 189.524C170.754 189.549 170.309 189.539 169.867 189.493C169.61 189.474 169.353 189.454 169.096 189.446C168.133 189.385 167.172 189.596 166.323 190.056C165.475 190.516 164.773 191.205 164.298 192.046C164.133 192.332 163.995 192.633 163.884 192.944C163.832 193.078 163.783 193.213 163.723 193.344L163.709 193.376L163.546 194.378C163.546 194.48 163.554 194.581 163.557 194.682C163.559 194.916 163.574 195.15 163.604 195.382C163.718 196.365 164.107 197.295 164.727 198.066C165.348 198.837 166.173 199.417 167.109 199.739C167.182 199.769 167.258 199.795 167.333 199.821L167.487 199.871L168.5 200.038L168.688 200.031C168.8 200.031 168.912 200.023 169.025 200.021C169.871 199.994 170.698 199.765 171.437 199.353C172.176 198.94 172.805 198.356 173.272 197.65C173.738 196.945 174.029 196.137 174.119 195.295C174.209 194.454 174.095 193.603 173.788 192.815C173.638 192.468 173.466 192.132 173.273 191.807C173.252 191.769 173.231 191.73 173.208 191.692L199.595 184.287L199.201 183.931C198.466 183.258 197.636 182.696 196.738 182.262C196.036 181.888 195.248 181.701 194.452 181.721C193.974 181.765 193.5 181.846 193.035 181.962ZM180.057 186.609C180.149 186.624 180.237 186.657 180.317 186.706C180.396 186.755 180.464 186.82 180.518 186.897C180.614 187.047 180.65 187.228 180.619 187.403C180.604 187.492 180.571 187.576 180.522 187.652C180.473 187.727 180.41 187.792 180.336 187.843C180.262 187.894 180.178 187.929 180.09 187.947C180.002 187.966 179.911 187.966 179.823 187.948C179.73 187.935 179.641 187.902 179.56 187.854C179.48 187.805 179.41 187.741 179.355 187.665C179.277 187.553 179.235 187.421 179.234 187.285C179.232 187.149 179.272 187.015 179.347 186.902C179.422 186.789 179.529 186.701 179.655 186.649C179.781 186.597 179.919 186.584 180.052 186.612L180.057 186.609ZM169.347 191.829C170.115 191.965 170.799 192.399 171.249 193.037C171.699 193.674 171.88 194.464 171.751 195.234C171.615 195.998 171.182 196.678 170.547 197.124C169.911 197.571 169.125 197.747 168.36 197.616C167.594 197.484 166.912 197.055 166.462 196.422C166.013 195.789 165.831 195.004 165.959 194.238V194.231C166.1 193.469 166.533 192.792 167.165 192.343C167.798 191.895 168.58 191.71 169.347 191.829Z" fill="#D7DCDA"/>
<path d="M172.298 171.267L172.006 171.278C171.779 171.282 171.552 171.297 171.327 171.324C170.338 171.432 169.4 171.819 168.623 172.44C167.846 173.061 167.262 173.89 166.939 174.831L166.808 175.208L166.641 176.221L166.649 176.413C166.649 176.522 166.659 176.63 166.66 176.74C166.702 177.945 167.152 179.1 167.936 180.016C168.72 180.932 169.791 181.555 170.975 181.784C172.114 181.985 173.17 182.514 174.015 183.304C174.567 183.801 174.975 184.438 175.194 185.148L175.276 185.406L179.927 184.299L175.047 180.876C175.772 180.352 176.353 179.653 176.736 178.844C177.118 178.035 177.29 177.142 177.234 176.249C177.179 175.356 176.898 174.491 176.419 173.736C175.939 172.98 175.276 172.359 174.491 171.928C174.245 171.794 173.989 171.679 173.724 171.585C173.613 171.541 173.499 171.498 173.389 171.451L173.357 171.437L172.298 171.267ZM172.451 173.679C173.22 173.816 173.904 174.251 174.352 174.89C174.801 175.529 174.978 176.32 174.845 177.09C174.779 177.465 174.64 177.824 174.434 178.145C174.229 178.466 173.962 178.743 173.648 178.96C173.333 179.187 172.975 179.348 172.597 179.435C172.219 179.522 171.827 179.533 171.444 179.467C170.682 179.323 170.007 178.887 169.561 178.253C169.115 177.619 168.934 176.836 169.057 176.07C169.198 175.306 169.632 174.628 170.267 174.181C170.901 173.734 171.686 173.553 172.452 173.676L172.451 173.679Z" fill="#D7DCDA"/>
<path d="M183.796 189.176L180.779 190.018L180.283 190.212L180.727 190.569C180.759 190.597 180.793 190.624 180.828 190.648L183.017 191.999C185.78 193.705 188.545 195.408 191.313 197.107C191.694 197.327 192.107 197.485 192.537 197.576C193.335 197.731 194.157 197.704 194.943 197.497C195.654 197.347 196.346 197.118 197.006 196.814L197.468 196.602L195.113 194.946C192.18 192.891 189.248 190.834 186.317 188.775C186.216 188.699 186.097 188.648 185.972 188.628C185.847 188.608 185.719 188.619 185.598 188.66C185.002 188.838 184.4 189.006 183.796 189.176Z" fill="#D7DCDA"/>
<path d="M250.04 202.366L159.737 254.502L177.116 284.603L282.47 223.777L285.65 211.908M136.735 292.867C135.161 292.445 133.819 291.415 133.005 290.004C132.19 288.593 131.969 286.915 132.391 285.341C132.812 283.767 133.842 282.425 135.254 281.61C136.665 280.796 138.342 280.575 139.916 280.997C141.49 281.418 142.832 282.448 143.647 283.859C144.462 285.271 144.682 286.948 144.261 288.522C143.839 290.096 142.809 291.438 141.398 292.253C139.987 293.068 138.309 293.288 136.735 292.867ZM41.6617 362.808C35.3655 361.121 29.9973 357.002 26.7381 351.357C23.479 345.712 22.5958 339.003 24.2829 332.707C27.8133 319.531 41.3269 311.83 54.3838 315.328C60.68 317.015 66.0482 321.134 69.3074 326.779C72.5665 332.424 73.4497 339.133 71.7626 345.429C68.2322 358.605 54.7186 366.307 41.6617 362.808ZM79.8282 220.369C73.532 218.682 68.1638 214.562 64.9047 208.917C61.6455 203.272 60.7623 196.564 62.4494 190.268C65.9798 177.092 79.4934 169.39 92.5503 172.889C98.8466 174.576 104.215 178.695 107.474 184.34C110.733 189.985 111.616 196.694 109.929 202.99C106.399 216.165 92.8851 223.867 79.8282 220.369ZM124.18 227.673C128.5 222.469 131.793 216.354 133.669 209.351C137.043 196.758 135.277 183.341 128.758 172.051C122.24 160.761 111.504 152.523 98.9114 149.149C86.319 145.775 72.902 147.541 61.6119 154.06C50.3219 160.578 42.0836 171.314 38.7095 183.907C35.3353 196.499 37.1017 209.916 43.62 221.206C50.1384 232.496 60.8747 240.734 73.4671 244.108C80.4704 245.985 87.4123 246.191 94.0788 245.051L114.586 280.571L79.0666 301.078C73.8632 296.757 67.7482 293.465 60.7449 291.588C48.1525 288.214 34.7355 289.981 23.4454 296.499C12.1553 303.017 3.91709 313.753 0.54296 326.346C-2.83117 338.938 -1.06478 352.355 5.45354 363.645C11.9719 374.935 22.7082 383.174 35.3006 386.548C47.893 389.922 61.31 388.156 72.6001 381.637C83.8902 375.119 92.1284 364.383 95.5025 351.79C97.3791 344.787 97.5853 337.845 96.4455 331.179L131.965 310.672L192.79 416.025L228.4 425.567L231.581 413.697L124.18 227.673Z" fill="url(#paint0_linear_1618_34028)"/>
</g>
<defs>
<linearGradient id="paint0_linear_1618_34028" x1="183.802" y1="389.986" x2="18.067" y2="280.696" gradientUnits="userSpaceOnUse">
<stop stop-color="#E8E8E8" stop-opacity="0.15"/>
<stop offset="0.0001" stop-color="#E8E8E8" stop-opacity="0.21"/>
<stop offset="1" stop-color="white" stop-opacity="0.1"/>
</linearGradient>
<clipPath id="clip0_1618_34028">
<rect width="683" height="320" fill="white" transform="translate(0 0.0380859)"/>
</clipPath>
</defs>
</svg>
