<svg width="683" height="320" viewBox="0 0 683 320" fill="none" xmlns="http://www.w3.org/2000/svg">
<path d="M371.903 166.734C371.186 168.262 370.591 169.863 369.73 171.305C366.633 176.493 361.373 176.632 358.002 171.624C355.669 168.159 354.842 164.127 354.159 160.119C353.438 155.884 353.038 151.594 352.495 147.329C352.462 147.071 352.4 146.816 352.077 146.546C351.531 150.455 351.104 154.385 350.413 158.267C349.136 165.44 347.705 172.584 346.331 179.739C346.267 180.07 346.141 180.39 346.03 180.711C345.452 182.376 344.682 183.999 342.697 184.135C340.604 184.278 339.216 182.842 338.625 181.092C337.782 178.595 337.116 175.979 336.834 173.364C335.972 165.38 335.331 157.372 334.599 149.374C334.56 148.941 334.484 148.512 334.334 148.084C333.485 155.763 332.126 163.313 329.375 170.545C328.532 172.76 327.643 174.994 326.456 177.033C323.99 181.266 318.853 182.57 315.837 179.638C314.438 178.278 313.603 176.285 312.701 174.484C312.11 173.305 311.859 171.956 311.338 170.31C310.355 173.131 309.616 175.652 308.601 178.056C307.505 180.652 306.419 183.319 304.852 185.633C301.919 189.966 297.207 189.797 294.904 185.11C293.39 182.029 292.771 178.484 291.945 175.099C291.444 173.046 291.314 170.903 290.965 168.433C289.958 170.91 289.165 173.061 288.22 175.142C285.925 180.197 282.973 184.825 278.613 188.35C275.493 190.872 271.946 192.427 267.93 190.632C264.849 189.255 262.59 186.704 261.716 183.539C258.391 171.508 259.541 160.093 267.342 149.887C269.493 147.074 271.979 144.611 275.667 143.82C278.356 143.243 280.923 143.331 282.947 145.403C284.986 147.491 285.216 150.204 284.17 152.694C283.025 155.419 281.595 158.151 279.724 160.412C277.286 163.357 274.263 165.813 271.56 168.547C270.981 169.132 270.334 170.006 270.332 170.749C270.321 175.15 270.446 179.554 270.626 183.953C270.686 185.437 271.773 186.103 273.142 185.364C274.809 184.464 276.493 183.411 277.799 182.064C283.096 176.602 286.134 169.865 288.144 162.637C290.011 155.921 291.028 149.074 291.305 142.089C291.452 138.373 291.938 134.637 292.679 130.993C293.081 129.016 294.142 127.084 295.261 125.364C296.677 123.188 298.836 122.442 300.829 123.099C303.201 123.882 304.3 125.722 304.562 128.093C305.028 132.305 303.73 136.169 301.93 139.86C301.021 141.724 299.694 143.38 298.652 145.185C298.31 145.778 298.103 146.55 298.121 147.233C298.349 155.611 298.608 163.989 298.91 172.366C299.011 175.189 299.225 178.009 299.458 180.825C299.522 181.59 299.846 182.332 300.507 183.245C301.747 181.08 303.228 179.016 304.184 176.733C307.626 168.507 309.944 159.978 310.986 151.083C311.705 144.938 313.209 138.955 316.376 133.527C316.773 132.846 317.248 132.198 317.763 131.6C320.294 128.666 322.716 128.338 325.958 130.454C328.121 128.637 329.098 128.798 330.795 131.172C333.032 134.302 334.028 137.858 334.406 142.032C335.072 141.11 335.538 140.463 335.846 140.037C336.835 141.169 337.601 142.048 338.368 142.927C338.562 142.854 338.757 142.782 338.951 142.709C339.076 140.843 339.201 138.977 339.326 137.11C341.49 137.369 344.178 140.425 344.328 142.822C344.675 148.338 344.986 153.856 345.318 159.489C345.881 156.217 346.407 153.003 346.991 149.8C347.528 146.853 347.92 143.858 348.742 140.989C350.291 135.579 353.661 134.872 357.655 138.783C359.839 140.921 360.201 143.659 360.604 146.363C361.296 151.006 361.671 155.696 362.342 160.343C362.735 163.061 363.445 165.733 364.124 168.957C364.904 168.256 365.462 167.879 365.862 167.376C368.752 163.742 369.659 159.39 370.465 154.952C371.778 147.721 371.763 140.449 371.692 133.141C371.654 129.256 372.234 125.361 372.597 121.477C372.645 120.968 372.97 120.413 373.323 120.018C374.49 118.708 375.728 117.462 376.908 116.225C378.448 117.797 379.856 119.233 381.296 120.703C382.696 119.478 383.814 118.445 384.99 117.482C387.789 115.187 390.973 114.037 394.61 114.591C400.082 115.424 403.316 118.935 404.49 124.99C405.65 130.972 404.446 136.635 401.998 142.015C399.895 146.637 397.351 151.059 394.994 155.566C394.714 156.101 394.388 156.612 394.018 157.247C396.926 157.37 399.579 157.729 401.862 159.455C405.754 162.396 407.51 166.551 407.451 171.144C407.256 186.206 400.923 198.047 388.063 206.172C387.167 206.738 386.129 207.125 385.11 207.446C380.384 208.937 376.84 207.417 374.777 202.922C373.276 199.651 372.522 196.194 372.522 192.564C372.522 189.791 372.369 187.017 372.23 184.246C372.211 183.871 371.965 183.405 371.673 183.161C369.748 181.55 369.284 179.82 370.297 177.477C370.877 176.133 371.898 174.875 372.088 173.491C372.391 171.274 372.169 168.985 372.169 166.726C372.08 166.728 371.992 166.731 371.903 166.734ZM382.4 200.674C385.241 200.085 387.248 198.755 388.984 197.036C393.384 192.681 396.782 187.639 398.839 181.782C400.045 178.347 400.736 174.792 400.09 171.119C399.293 166.587 395.804 164.646 391.711 166.729C389.474 167.867 387.549 169.612 385.464 171.055C384.341 171.833 383.987 172.819 383.992 174.208C384.022 181.954 384.022 189.704 382.703 197.379C382.533 198.366 382.515 199.378 382.4 200.674ZM394.206 122.806C394.948 124.28 393.998 124.923 393.085 125.616C392.007 126.433 390.749 127.129 389.942 128.168C387.623 131.15 385.474 134.266 383.312 137.368C383.057 137.733 383.063 138.334 383.076 138.823C383.263 145.663 383.471 152.503 383.68 159.343C383.697 159.91 383.753 160.476 383.821 161.479C388.32 155.501 392.118 149.704 394.647 143.166C396.28 138.945 397.79 134.668 397.621 130.043C397.517 127.209 396.764 124.611 394.206 122.806ZM320.829 174.462C327.282 169.076 331.579 144.258 327.925 136.356C327.152 136.653 326.351 137.269 325.644 137.176C323.519 136.895 323.977 134.528 322.776 133.133C318.648 146.772 318.008 160.338 320.829 174.462ZM272.49 160.508C278.44 155.511 280.968 150.78 279.405 147.554C278.583 148.709 277.749 150.06 276.739 151.262C274.541 153.877 273.33 156.911 272.49 160.508ZM300.176 128.172C299.99 128.145 299.805 128.118 299.619 128.091C299.243 130.747 298.866 133.403 298.489 136.059C300.03 133.576 301.068 131.018 300.176 128.172Z" fill="#D7DCDA"/>
<path d="M241.842 143.239C241.108 147.465 240.461 151.709 239.596 155.909C239.259 157.544 238.572 159.152 237.797 160.643C236.04 164.021 232.125 164.543 229.683 161.615C228.407 160.085 227.406 158.223 226.687 156.354C225.372 152.938 224.359 149.406 222.883 145.918C222.839 146.874 222.779 147.829 222.755 148.786C222.366 164.016 222.056 179.249 221.55 194.475C221.408 198.733 221.12 198.634 217.448 198.992C215.842 199.149 214.19 198.972 212.571 198.823C211.035 198.681 210.391 197.681 210.29 196.177C210.034 192.337 209.653 188.504 209.434 184.661C208.7 171.83 207.677 159.003 207.426 146.161C207.245 136.898 208.243 127.624 210.347 118.544C210.682 117.098 211.402 115.669 212.235 114.426C214.241 111.432 220.007 110.519 221.819 115.738C223.392 120.267 224.655 124.905 225.999 129.511C228.295 137.38 230.546 145.261 232.825 153.134C232.975 153.654 233.199 154.152 233.716 154.654C234.531 150.822 235.37 146.995 236.156 143.158C237.552 136.346 238.84 129.512 240.348 122.726C240.729 121.008 241.579 119.313 242.549 117.827C243.882 115.783 245.757 115.399 248.068 116.167C252.248 117.557 253.961 121.092 254.483 124.836C255.528 132.333 256.141 139.907 256.582 147.47C257.532 163.732 256.565 179.956 255.267 196.17C255.039 199.021 253.406 200.951 251.901 203.04C251.244 203.951 250.415 204.738 249.498 205.768C247.329 202.392 244.633 199.685 244.481 195.239C243.918 178.774 242.998 162.32 242.208 145.862C242.165 144.967 242.077 144.074 242.01 143.18C241.954 143.2 241.898 143.219 241.842 143.239Z" fill="#D7DCDA"/>
<path d="M451.402 178.377C449.663 181.009 448.053 183.533 446.347 185.99C445.48 187.241 443.878 187.553 442.646 186.66C441.267 185.661 439.934 184.549 438.802 183.289C438.452 182.899 438.588 181.738 438.903 181.143C440.358 178.395 441.821 175.633 443.546 173.053C444.745 171.26 444.701 169.957 443.552 168.093C441.24 164.345 439.237 160.399 437.253 156.46C435.222 152.428 434.562 148.139 435.622 143.574C438.26 142.271 441.996 144.088 443.664 147.47C445.733 151.667 447.957 155.787 450.114 159.941C450.293 159.921 450.472 159.9 450.651 159.88C451.318 158.63 451.985 157.379 452.654 156.129C454.147 153.339 455.54 150.488 457.193 147.797C457.746 146.896 458.97 146.41 459.877 145.722C460.364 145.352 460.906 145.018 461.291 144.558C462.34 143.304 463.207 143.709 464.02 144.773C465.455 146.652 465.685 148.771 464.751 150.86C462.332 156.27 459.864 161.661 457.235 166.969C456.521 168.41 456.457 169.419 457.545 170.551C459.024 172.09 460.431 173.7 461.94 175.208C463.122 176.388 464.16 175.984 465.264 174.875C467.681 172.45 469.243 169.56 470.41 166.385C470.832 165.236 471.393 164.081 472.148 163.133C472.543 162.636 473.599 162.244 474.164 162.42C474.734 162.598 475.111 163.512 475.481 164.157C475.632 164.42 475.611 164.836 475.548 165.159C474.416 171.044 472.566 176.584 467.456 180.31C463.417 183.255 459.174 183.326 454.911 180.729C453.714 180 452.578 179.169 451.402 178.377Z" fill="#D7DCDA"/>
<path d="M426.734 130.525C428.291 128.735 429.623 128.809 431.067 130.696C433.748 134.2 435.041 138.26 435.008 142.576C434.918 154.306 432.659 165.612 427.543 176.237C426.167 179.093 423.891 181.002 420.541 181.143C418.347 181.236 416.597 180.304 415.345 178.487C412.727 174.684 411.8 170.299 411.303 165.853C410.189 155.89 411.583 146.217 415.292 136.91C415.974 135.197 416.935 133.543 418.034 132.06C420.561 128.655 423.086 128.263 426.734 130.525ZM423.393 133.124C419.283 146.789 418.584 160.359 421.464 174.396C427.793 169.411 432.152 144.468 428.474 136.185C426.232 137.957 426.151 137.911 423.393 133.124Z" fill="#D7DCDA"/>
<path d="M405.744 174.229C404.228 177.458 402.97 180.841 401.151 183.889C394.607 194.85 383.494 195.144 376.369 184.562C371.44 177.24 369.693 168.721 368.25 160.251C366.725 151.302 365.881 142.237 364.733 133.224C364.663 132.679 364.532 132.142 363.85 131.57C362.696 139.83 361.794 148.134 360.333 156.338C357.634 171.494 354.611 186.591 351.708 201.71C351.574 202.409 351.308 203.086 351.073 203.763C349.851 207.281 348.225 210.71 344.03 210.998C339.606 211.301 336.674 208.267 335.425 204.568C333.643 199.292 332.237 193.763 331.64 188.238C329.819 171.368 328.463 154.447 326.918 137.546C326.835 136.632 326.674 135.724 326.357 134.82C324.563 151.046 321.691 167 315.879 182.282C314.099 186.962 312.22 191.683 309.71 195.992C304.5 204.936 293.646 207.693 287.273 201.497C284.316 198.622 282.551 194.411 280.645 190.605C279.398 188.113 278.867 185.263 277.766 181.785C275.688 187.747 274.127 193.074 271.982 198.154C269.667 203.638 267.37 209.274 264.061 214.164C257.863 223.32 247.905 222.964 243.038 213.059C239.84 206.548 238.532 199.057 236.787 191.904C235.729 187.567 235.453 183.038 234.716 177.819C232.587 183.053 230.912 187.598 228.915 191.996C224.067 202.677 217.829 212.456 208.615 219.905C202.022 225.235 194.528 228.52 186.042 224.728C179.53 221.818 174.758 216.427 172.91 209.74C165.884 184.316 168.314 160.195 184.799 138.63C189.343 132.685 194.596 127.482 202.391 125.809C208.073 124.59 213.498 124.777 217.773 129.155C222.082 133.567 222.567 139.301 220.357 144.561C217.938 150.319 214.917 156.092 210.963 160.87C205.812 167.093 199.424 172.282 193.712 178.059C192.488 179.297 191.122 181.143 191.118 182.712C191.095 192.013 191.358 201.319 191.738 210.615C191.866 213.749 194.162 215.157 197.056 213.595C200.577 211.694 204.136 209.468 206.895 206.623C218.088 195.081 224.508 180.845 228.754 165.571C232.7 151.379 234.848 136.912 235.434 122.152C235.745 114.301 236.771 106.406 238.338 98.7057C239.187 94.5279 241.428 90.4463 243.794 86.8107C246.785 82.2142 251.348 80.6359 255.56 82.026C260.571 83.6796 262.894 87.5675 263.447 92.5771C264.431 101.479 261.688 109.644 257.886 117.442C255.966 121.381 253.16 124.879 250.959 128.695C250.236 129.947 249.798 131.579 249.838 133.021C250.319 150.726 250.866 168.429 251.503 186.129C251.718 192.095 252.169 198.055 252.663 204.005C252.797 205.62 253.482 207.189 254.879 209.117C257.499 204.543 260.629 200.182 262.648 195.357C269.922 177.976 274.821 159.954 277.021 141.157C278.541 128.173 281.719 115.529 288.411 104.06C289.25 102.621 290.253 101.251 291.342 99.989C296.689 93.7878 301.807 93.0957 308.659 97.5659C313.229 93.7276 315.295 94.0673 318.88 99.0842C323.606 105.698 325.711 113.213 326.509 122.032C327.916 120.083 328.903 118.717 329.554 117.816C331.642 120.209 333.262 122.066 334.882 123.922C335.293 123.769 335.703 123.616 336.114 123.463C336.378 119.52 336.642 115.577 336.906 111.632C341.479 112.179 347.158 118.636 347.477 123.701C348.209 135.357 348.866 147.017 349.568 158.919C350.757 152.006 351.869 145.215 353.103 138.446C354.237 132.219 355.066 125.891 356.802 119.828C360.076 108.397 367.197 106.903 375.637 115.168C380.251 119.685 381.017 125.469 381.868 131.183C383.329 140.995 384.122 150.905 385.541 160.724C386.371 166.467 387.871 172.114 389.306 178.926C390.954 177.446 392.133 176.649 392.978 175.586C399.085 167.906 401.001 158.71 402.704 149.334C405.48 134.052 405.448 118.688 405.298 103.245C405.218 95.0343 406.444 86.8058 407.211 78.5974C407.311 77.522 407.999 76.349 408.743 75.514C411.209 72.7471 413.826 70.1142 416.318 67.499C419.574 70.8211 422.548 73.8567 425.591 76.9621C428.55 74.3733 430.913 72.1915 433.396 70.156C439.311 65.3075 446.04 62.8762 453.726 64.0463C465.288 65.8065 472.121 73.2271 474.602 86.021C477.053 98.6619 474.51 110.627 469.337 121.995C464.892 131.763 459.516 141.107 454.537 150.63C453.946 151.761 453.257 152.84 452.473 154.183C458.62 154.442 464.224 155.202 469.05 158.849C477.273 165.063 480.984 173.841 480.858 183.547C480.447 215.374 467.064 240.395 439.891 257.564C437.997 258.761 435.804 259.577 433.651 260.256C423.664 263.406 416.176 260.194 411.816 250.696C408.644 243.786 407.052 236.48 407.051 228.809C407.051 222.95 406.728 217.088 406.435 211.233C406.395 210.44 405.874 209.456 405.258 208.941C401.19 205.536 400.21 201.881 402.35 196.93C403.576 194.09 405.734 191.431 406.134 188.507C406.775 183.822 406.306 178.984 406.306 174.211C406.118 174.217 405.931 174.223 405.744 174.229ZM427.925 245.946C433.928 244.703 438.169 241.891 441.838 238.259C451.134 229.056 458.314 218.402 462.66 206.025C465.209 198.768 466.67 191.256 465.305 183.496C463.62 173.918 456.249 169.817 447.599 174.218C442.873 176.622 438.805 180.311 434.399 183.361C432.026 185.002 431.278 187.086 431.289 190.021C431.352 206.389 431.351 222.766 428.564 238.984C428.206 241.069 428.167 243.208 427.925 245.946ZM452.872 81.406C454.44 84.5201 452.432 85.8791 450.503 87.3428C448.225 89.071 445.567 90.5418 443.861 92.7359C438.961 99.0385 434.419 105.623 429.851 112.176C429.313 112.947 429.324 114.218 429.353 115.251C429.749 129.705 430.188 144.158 430.629 158.612C430.665 159.81 430.784 161.006 430.926 163.124C440.433 150.492 448.459 138.243 453.803 124.429C457.254 115.508 460.445 106.472 460.087 96.6982C459.867 90.7099 458.276 85.2202 452.872 81.406ZM297.821 190.559C311.456 179.178 320.536 126.736 312.814 110.038C311.181 110.666 309.489 111.967 307.995 111.77C303.505 111.178 304.472 106.175 301.935 103.228C293.212 132.047 291.859 160.714 297.821 190.559ZM195.676 161.072C208.249 150.515 213.591 140.517 210.29 133.701C208.552 136.142 206.791 138.995 204.656 141.535C200.011 147.061 197.452 153.473 195.676 161.072ZM254.179 92.7447C253.787 92.6874 253.395 92.6301 253.003 92.573C252.207 98.1852 251.411 103.798 250.615 109.41C253.872 104.163 256.064 98.7586 254.179 92.7447Z" fill="url(#paint0_linear_1625_34283)" fill-opacity="0.16"/>
<path d="M130.917 124.582C129.365 133.513 127.998 142.481 126.17 151.355C125.458 154.81 124.007 158.207 122.368 161.359C118.657 168.496 110.383 169.598 105.224 163.412C102.527 160.179 100.411 156.244 98.8917 152.296C96.1134 145.077 93.9725 137.613 90.853 130.242C90.7614 132.263 90.635 134.282 90.5835 136.304C89.7624 168.486 89.1072 200.673 88.0364 232.847C87.7371 241.845 87.1291 241.635 79.3694 242.392C75.9752 242.723 72.4853 242.35 69.0631 242.035C65.818 241.735 64.4569 239.623 64.2447 236.444C63.7029 228.329 62.8991 220.23 62.4349 212.111C60.8849 184.998 58.7224 157.893 58.1916 130.757C57.8088 111.184 59.9188 91.5861 64.364 72.3999C65.0718 69.3452 66.5944 66.3246 68.3533 63.699C72.5924 57.3713 84.7778 55.4419 88.6062 66.4701C91.9286 76.0408 94.5978 85.8418 97.4385 95.5752C102.291 112.201 107.047 128.855 111.861 145.492C112.179 146.59 112.652 147.642 113.746 148.704C115.468 140.607 117.239 132.52 118.901 124.41C121.851 110.018 124.573 95.5762 127.758 81.2369C128.564 77.6069 130.36 74.0259 132.41 70.8846C135.227 66.5666 139.187 65.755 144.071 67.3779C152.905 70.3136 156.524 77.7834 157.626 85.6948C159.834 101.538 161.13 117.542 162.063 133.522C164.069 167.886 162.026 202.168 159.283 236.429C158.801 242.455 155.35 246.532 152.17 250.946C150.783 252.872 149.031 254.534 147.093 256.711C142.51 249.577 136.813 243.856 136.492 234.463C135.302 199.669 133.359 164.902 131.688 130.125C131.598 128.233 131.412 126.346 131.27 124.458C131.152 124.499 131.035 124.54 130.917 124.582Z" fill="url(#paint1_linear_1625_34283)" fill-opacity="0.16"/>
<path d="M573.73 198.831C570.055 204.393 566.653 209.726 563.05 214.919C561.216 217.562 557.832 218.221 555.229 216.335C552.315 214.223 549.498 211.874 547.105 209.211C546.365 208.387 546.653 205.934 547.318 204.677C550.393 198.87 553.484 193.034 557.13 187.582C559.664 183.793 559.571 181.039 557.142 177.1C552.258 169.181 548.024 160.842 543.832 152.52C539.541 143.999 538.145 134.937 540.387 125.29C545.96 122.536 553.854 126.376 557.378 133.523C561.752 142.391 566.45 151.098 571.008 159.874C571.386 159.832 571.765 159.789 572.143 159.746C573.554 157.104 574.962 154.46 576.375 151.82C579.531 145.925 582.475 139.9 585.967 134.213C587.136 132.31 589.721 131.284 591.638 129.829C592.668 129.048 593.814 128.342 594.627 127.369C596.842 124.719 598.676 125.576 600.392 127.823C603.426 131.794 603.911 136.272 601.938 140.687C596.827 152.117 591.612 163.509 586.056 174.726C584.548 177.77 584.411 179.902 586.71 182.294C589.836 185.546 592.809 188.948 595.998 192.134C598.495 194.629 600.689 193.774 603.023 191.432C608.13 186.306 611.43 180.2 613.896 173.492C614.788 171.063 615.974 168.623 617.568 166.62C618.403 165.57 620.633 164.741 621.828 165.114C623.032 165.489 623.83 167.421 624.61 168.783C624.929 169.339 624.885 170.218 624.753 170.901C622.361 183.337 618.452 195.043 607.654 202.916C599.12 209.138 590.153 209.288 581.145 203.802C578.615 202.261 576.216 200.506 573.73 198.831Z" fill="url(#paint2_linear_1625_34283)" fill-opacity="0.16"/>
<path d="M521.605 97.7171C524.895 93.9344 527.709 94.0905 530.761 98.0791C536.426 105.483 539.159 114.06 539.089 123.181C538.899 147.967 534.124 171.859 523.314 194.309C520.408 200.344 515.598 204.378 508.52 204.677C503.882 204.873 500.184 202.903 497.54 199.063C492.008 191.029 490.049 181.762 488.999 172.367C486.645 151.314 489.59 130.875 497.427 111.208C498.868 107.589 500.898 104.094 503.222 100.961C508.56 93.7652 513.898 92.9381 521.605 97.7171ZM514.545 103.209C505.861 132.085 504.383 160.757 510.468 190.418C523.844 179.885 533.054 127.18 525.281 109.677C520.545 113.422 520.373 113.324 514.545 103.209Z" fill="url(#paint3_linear_1625_34283)" fill-opacity="0.16"/>
<defs>
<linearGradient id="paint0_linear_1625_34283" x1="58.1475" y1="111.073" x2="765.528" y2="138.871" gradientUnits="userSpaceOnUse">
<stop stop-color="white"/>
<stop offset="1" stop-color="white" stop-opacity="0"/>
</linearGradient>
<linearGradient id="paint1_linear_1625_34283" x1="58.1475" y1="111.073" x2="765.528" y2="138.871" gradientUnits="userSpaceOnUse">
<stop stop-color="white"/>
<stop offset="1" stop-color="white" stop-opacity="0"/>
</linearGradient>
<linearGradient id="paint2_linear_1625_34283" x1="58.1475" y1="111.073" x2="765.528" y2="138.871" gradientUnits="userSpaceOnUse">
<stop stop-color="white"/>
<stop offset="1" stop-color="white" stop-opacity="0"/>
</linearGradient>
<linearGradient id="paint3_linear_1625_34283" x1="58.1475" y1="111.073" x2="765.528" y2="138.871" gradientUnits="userSpaceOnUse">
<stop stop-color="white"/>
<stop offset="1" stop-color="white" stop-opacity="0"/>
</linearGradient>
</defs>
</svg>
